<svg xmlns="http://www.w3.org/2000/svg" viewBox="0 0 64 46"><title>laptop</title><g id="Layer_2" data-name="Layer 2"><g id="laptop"><path d="M9.74,33.87H54.08a1,1,0,0,0,1-1V6.41a1,1,0,0,0-1-1H9.74a1,1,0,0,0-1,1V32.87A1,1,0,0,0,9.74,33.87Zm1-26.46H53.08V31.87H10.74Z"/><path d="M22.39,14.83H21V12.62a1,1,0,0,0-2,0v2.21H17.58a1,1,0,0,0-1,1v8.53a1,1,0,0,0,1,1H19v2.21a1,1,0,0,0,2,0V25.36h1.41a1,1,0,0,0,1-1V15.83A1,1,0,0,0,22.39,14.83Zm-1,8.53H18.58V16.83h2.82Z"/><path d="M34.11,17.32H32.7v-5a1,1,0,0,0-2,0v5H29.3a1,1,0,0,0-1,1V24.1a1,1,0,0,0,1,1h1.4v2.21a1,1,0,0,0,2,0V25.1h1.41a1,1,0,0,0,1-1V18.32A1,1,0,0,0,34.11,17.32Zm-1,5.78H30.3V19.32h2.81Z"/><path d="M45.28,14.25H43.87V12a1,1,0,0,0-2,0v2.21H40.47a1,1,0,0,0-1,1V25a1,1,0,0,0,1,1h1.41v1a1,1,0,0,0,2,0V26h1.41a1,1,0,0,0,1-1V15.25A1,1,0,0,0,45.28,14.25Zm-1,9.72H41.47V16.25h2.82Z"/><path d="M60.21,37.13V4.64A4.67,4.67,0,0,0,55.53,0H8.19A4.67,4.67,0,0,0,3.51,4.64V37.18a4.46,4.46,0,0,0,1,8.82h55a4.46,4.46,0,0,0,.72-8.87ZM8.19,2H55.53a2.66,2.66,0,0,1,2.68,2.64V37.06H5.51V4.64A2.66,2.66,0,0,1,8.19,2Zm51.3,42h-55a2.47,2.47,0,1,1,0-4.94h55a2.47,2.47,0,1,1,0,4.94Z"/></g></g></svg>