<svg xmlns="http://www.w3.org/2000/svg" viewBox="0 0 48 48"><defs><style>.cls-1{fill:#201602;}</style></defs><title>Asset 38ldpi</title><g id="Layer_2" data-name="Layer 2"><g id="layer_1-2" data-name="layer 1"><path class="cls-1" d="M36.71,16.71l-1.42-1.42,6.5-6.5a1,1,0,0,1,1.42,0L46,11.59V2H36.41l2.8,2.79a1,1,0,0,1,0,1.42l-5.5,5.5-1.42-1.42,4.8-4.79-3.8-3.79A1,1,0,0,1,33.08.62,1,1,0,0,1,34,0H47a1,1,0,0,1,1,1V14a1,1,0,0,1-.62.92,1,1,0,0,1-1.09-.21l-3.79-3.8Z"/><path class="cls-1" d="M11.29,16.71,5.5,10.91l-3.79,3.8a1,1,0,0,1-1.09.21A1,1,0,0,1,0,14V1A1,1,0,0,1,1,0H14a1,1,0,0,1,.92.62,1,1,0,0,1-.21,1.09L10.91,5.5l4.8,4.79-1.42,1.42-5.5-5.5a1,1,0,0,1,0-1.42L11.59,2H2v9.59l2.79-2.8a1,1,0,0,1,1.42,0l6.5,6.5Z"/><path class="cls-1" d="M14,48H1a1,1,0,0,1-1-1V34a1,1,0,0,1,.62-.92,1,1,0,0,1,1.09.21l3.79,3.8,7.79-7.8,1.42,1.42-8.5,8.5a1,1,0,0,1-1.42,0L2,36.41V46h9.59l-2.8-2.79a1,1,0,0,1,0-1.42l6.5-6.5,1.42,1.42-5.8,5.79,3.8,3.79a1,1,0,0,1,.21,1.09A1,1,0,0,1,14,48Z"/><path class="cls-1" d="M47,48H34a1,1,0,0,1-.92-.62,1,1,0,0,1,.21-1.09l3.8-3.79-5.8-5.79,1.42-1.42,6.5,6.5a1,1,0,0,1,0,1.42L36.41,46H46V36.41l-2.79,2.8a1,1,0,0,1-1.42,0l-8.5-8.5,1.42-1.42,7.79,7.8,3.79-3.8a1,1,0,0,1,1.09-.21A1,1,0,0,1,48,34V47A1,1,0,0,1,47,48Z"/><path class="cls-1" d="M24,12c-2.76,0-5-2.69-5-6s2.24-6,5-6,5,2.69,5,6S26.76,12,24,12ZM24,2c-1.65,0-3,1.79-3,4s1.35,4,3,4,3-1.79,3-4S25.65,2,24,2Z"/><rect class="cls-1" x="17" y="46" width="14" height="2"/><rect class="cls-1" x="18" y="26" width="2" height="21"/><rect class="cls-1" x="23" y="30" width="2" height="17"/><rect class="cls-1" x="28" y="26" width="2" height="21"/><path class="cls-1" d="M19,29H17a3,3,0,0,1-3-3V15.58a5,5,0,0,1,4.45-5l5.44-.6.22,2-5.44.61a3,3,0,0,0-2.67,3V26a1,1,0,0,0,1,1h1V16h2V28A1,1,0,0,1,19,29Z"/><path class="cls-1" d="M31,29H29a1,1,0,0,1-1-1V16h2V27h1a1,1,0,0,0,1-1V15.58a3,3,0,0,0-2.67-3L23.89,12l.22-2,5.44.6a5,5,0,0,1,4.45,5V26A3,3,0,0,1,31,29Z"/><rect class="cls-1" x="19" y="25" width="10" height="2"/></g></g></svg>