<?xml version="1.0" encoding="utf-8"?>
<!-- Generator: Adobe Illustrator 16.0.0, SVG Export Plug-In . SVG Version: 6.00 Build 0)  -->
<!DOCTYPE svg PUBLIC "-//W3C//DTD SVG 1.0//EN" "http://www.w3.org/TR/2001/REC-SVG-20010904/DTD/svg10.dtd">
<svg version="1.0" id="Layer_1" xmlns="http://www.w3.org/2000/svg" xmlns:xlink="http://www.w3.org/1999/xlink" x="0px" y="0px"
	 width="100px" height="100px" viewBox="0 0 100 100" enable-background="new 0 0 100 100" xml:space="preserve">
<polygon points="46.666,10 20,20 46.666,30 73.333,20 "/>
<path d="M70,56.666c-9.206,0-16.667,7.461-16.667,16.666C53.333,82.539,60.794,90,70,90c9.207,0,16.668-7.461,16.668-16.668
	C86.668,64.127,79.207,56.666,70,56.666z M80.001,75.832H72.5v7.501h-5v-7.501H60v-5h7.5v-7.5h5v7.5h7.501V75.832z"/>
<path d="M46.666,37.12l-13.333-5v4.547C33.333,44.03,39.303,50,46.666,50C54.03,50,60,44.03,60,36.667v-4.547L46.666,37.12z"/>
<path d="M46.666,73.332c0-6.529,2.692-12.428,7.019-16.666H30c-5.5,0-10.883,4.414-11.962,9.805L13.333,90h40.352
	C49.358,85.769,46.666,79.87,46.666,73.332z"/>
</svg>
