<svg xmlns="http://www.w3.org/2000/svg" viewBox="0 0 48 48"><defs><style>.cls-1{fill:#201602;}</style></defs><title>Asset 37ldpi</title><g id="Layer_2" data-name="Layer 2"><g id="layer_1-2" data-name="layer 1"><path class="cls-1" d="M9.86,43.38a1,1,0,0,1-.71-.29L4.91,38.85a1,1,0,0,1-.09-1.32l3.56-4.62a18.21,18.21,0,0,1-1.73-4.16L.87,28A1,1,0,0,1,0,27V21a1,1,0,0,1,.87-1l5.78-.76a18.21,18.21,0,0,1,1.73-4.16L4.82,10.47a1,1,0,0,1,.09-1.32L9.15,4.91a1,1,0,0,1,1.32-.09l4.62,3.56a18.21,18.21,0,0,1,4.16-1.73L20,.87A1,1,0,0,1,21,0h6a1,1,0,0,1,1,.87l.76,5.78a18.21,18.21,0,0,1,4.16,1.73l4.62-3.56a1,1,0,0,1,1.32.09l4.24,4.24a1,1,0,0,1,.09,1.32l-3.56,4.62a17.77,17.77,0,0,1,1.73,4.16l5.78.76A1,1,0,0,1,48,21v6a1,1,0,0,1-.87,1l-5.78.76a17.77,17.77,0,0,1-1.73,4.16l3.56,4.62a1,1,0,0,1-.09,1.32l-4.24,4.24a1,1,0,0,1-1.32.09l-4.4-3.39,1.22-1.58,3.71,2.85,3-3-3.44-4.47a1,1,0,0,1,0-1.14,15.94,15.94,0,0,0,2-4.83,1,1,0,0,1,.85-.77L46,26.12V21.88l-5.58-.73a1,1,0,0,1-.85-.77,15.94,15.94,0,0,0-2-4.83,1,1,0,0,1,0-1.14l3.44-4.47-3-3-4.47,3.44a1,1,0,0,1-1.14,0,15.94,15.94,0,0,0-4.83-2,1,1,0,0,1-.77-.85L26.12,2H21.88l-.73,5.58a1,1,0,0,1-.77.85,15.94,15.94,0,0,0-4.83,2,1,1,0,0,1-1.14,0L9.94,6.94l-3,3,3.44,4.47a1,1,0,0,1,0,1.14,15.94,15.94,0,0,0-2,4.83,1,1,0,0,1-.85.77L2,21.88v4.24l5.58.73a1,1,0,0,1,.85.77,15.94,15.94,0,0,0,2,4.83,1,1,0,0,1,0,1.14L6.94,38.06l3,3,3.71-2.85,1.22,1.58-4.4,3.39A1,1,0,0,1,9.86,43.38Z"/><path class="cls-1" d="M24,22c-2.76,0-5-2.69-5-6s2.24-6,5-6,5,2.69,5,6S26.76,22,24,22Zm0-10c-1.65,0-3,1.79-3,4s1.35,4,3,4,3-1.79,3-4S25.65,12,24,12Z"/><rect class="cls-1" x="18" y="35" width="2" height="13"/><rect class="cls-1" x="23" y="39" width="2" height="9"/><rect class="cls-1" x="28" y="35" width="2" height="13"/><path class="cls-1" d="M19,38H17a3,3,0,0,1-3-3V25.58a5,5,0,0,1,4.45-5l5.44-.6.22,2-5.44.61a3,3,0,0,0-2.67,3V35a1,1,0,0,0,1,1h1V26h2V37A1,1,0,0,1,19,38Z"/><path class="cls-1" d="M31,38H29a1,1,0,0,1-1-1V26h2V36h1a1,1,0,0,0,1-1V25.58a3,3,0,0,0-2.67-3L23.89,22l.22-2,5.44.6a5,5,0,0,1,4.45,5V35A3,3,0,0,1,31,38Z"/><rect class="cls-1" x="19" y="34" width="10" height="2"/></g></g></svg>